<svg width="39" height="22" viewBox="0 0 39 22" fill="none" xmlns="http://www.w3.org/2000/svg">
<path d="M7.50355 1.02H10.5936C11.1736 1.02 11.6269 1.18333 11.9536 1.51C12.2869 1.83667 12.4536 2.27333 12.4536 2.82C12.4536 3.08 12.4169 3.30333 12.3436 3.49C12.2702 3.67 12.1769 3.82 12.0636 3.94C11.9502 4.05333 11.8202 4.14 11.6736 4.2C11.5269 4.25333 11.3836 4.28667 11.2436 4.3V4.36C11.3836 4.36667 11.5369 4.4 11.7036 4.46C11.8769 4.52 12.0369 4.61667 12.1836 4.75C12.3302 4.87667 12.4536 5.04333 12.5536 5.25C12.6536 5.45 12.7036 5.69667 12.7036 5.99C12.7036 6.27 12.6569 6.53333 12.5636 6.78C12.4769 7.02667 12.3536 7.24 12.1936 7.42C12.0336 7.6 11.8436 7.74333 11.6236 7.85C11.4036 7.95 11.1636 8 10.9036 8H7.50355V1.02ZM8.63355 7.03H10.5736C10.8669 7.03 11.0969 6.95333 11.2636 6.8C11.4302 6.64667 11.5136 6.42667 11.5136 6.14V5.8C11.5136 5.51333 11.4302 5.29333 11.2636 5.14C11.0969 4.98667 10.8669 4.91 10.5736 4.91H8.63355V7.03ZM8.63355 3.97H10.3836C10.6636 3.97 10.8802 3.9 11.0336 3.76C11.1869 3.61333 11.2636 3.40667 11.2636 3.14V2.82C11.2636 2.55333 11.1869 2.35 11.0336 2.21C10.8802 2.06333 10.6636 1.99 10.3836 1.99H8.63355V3.97ZM17.8254 8C17.5387 8 17.3187 7.92 17.1654 7.76C17.012 7.59333 16.9187 7.38333 16.8854 7.13H16.8354C16.7354 7.45667 16.552 7.70333 16.2854 7.87C16.0187 8.03667 15.6954 8.12 15.3154 8.12C14.7754 8.12 14.3587 7.98 14.0654 7.7C13.7787 7.42 13.6354 7.04333 13.6354 6.57C13.6354 6.05 13.822 5.66 14.1954 5.4C14.5754 5.14 15.1287 5.01 15.8554 5.01H16.7954V4.57C16.7954 4.25 16.7087 4.00333 16.5354 3.83C16.362 3.65667 16.092 3.57 15.7254 3.57C15.4187 3.57 15.1687 3.63667 14.9754 3.77C14.782 3.90333 14.6187 4.07333 14.4854 4.28L13.8354 3.69C14.0087 3.39667 14.252 3.15667 14.5654 2.97C14.8787 2.77667 15.2887 2.68 15.7954 2.68C16.4687 2.68 16.9854 2.83667 17.3454 3.15C17.7054 3.46333 17.8854 3.91333 17.8854 4.5V7.11H18.4354V8H17.8254ZM15.6254 7.29C15.9654 7.29 16.2454 7.21667 16.4654 7.07C16.6854 6.91667 16.7954 6.71333 16.7954 6.46V5.71H15.8754C15.122 5.71 14.7454 5.94333 14.7454 6.41V6.59C14.7454 6.82333 14.822 7 14.9754 7.12C15.1354 7.23333 15.352 7.29 15.6254 7.29ZM19.5036 8V2.8H20.5936V3.66H20.6436C20.757 3.38 20.927 3.14667 21.1536 2.96C21.387 2.77333 21.7036 2.68 22.1036 2.68C22.637 2.68 23.0503 2.85667 23.3436 3.21C23.6436 3.55667 23.7936 4.05333 23.7936 4.7V8H22.7036V4.84C22.7036 4.02667 22.377 3.62 21.7236 3.62C21.5836 3.62 21.4436 3.64 21.3036 3.68C21.1703 3.71333 21.0503 3.76667 20.9436 3.84C20.837 3.91333 20.7503 4.00667 20.6836 4.12C20.6236 4.23333 20.5936 4.36667 20.5936 4.52V8H19.5036ZM25.3044 0.6H26.3944V5.14H26.4444L27.1644 4.21L28.4144 2.8H29.6844L27.8644 4.81L29.9044 8H28.6044L27.1144 5.52L26.3944 6.3V8H25.3044V0.6ZM3.94609 15.02V21H2.81609V15.02H0.736094V14.02H6.02609V15.02H3.94609ZM6.59836 21V15.8H7.68836V16.8H7.73836C7.81169 16.5333 7.96503 16.3 8.19836 16.1C8.43169 15.9 8.75503 15.8 9.16836 15.8H9.45836V16.85H9.02836C8.59503 16.85 8.26169 16.92 8.02836 17.06C7.80169 17.2 7.68836 17.4067 7.68836 17.68V21H6.59836ZM14.1584 21C13.8717 21 13.6517 20.92 13.4984 20.76C13.345 20.5933 13.2517 20.3833 13.2184 20.13H13.1684C13.0684 20.4567 12.885 20.7033 12.6184 20.87C12.3517 21.0367 12.0284 21.12 11.6484 21.12C11.1084 21.12 10.6917 20.98 10.3984 20.7C10.1117 20.42 9.96836 20.0433 9.96836 19.57C9.96836 19.05 10.155 18.66 10.5284 18.4C10.9084 18.14 11.4617 18.01 12.1884 18.01H13.1284V17.57C13.1284 17.25 13.0417 17.0033 12.8684 16.83C12.695 16.6567 12.425 16.57 12.0584 16.57C11.7517 16.57 11.5017 16.6367 11.3084 16.77C11.115 16.9033 10.9517 17.0733 10.8184 17.28L10.1684 16.69C10.3417 16.3967 10.585 16.1567 10.8984 15.97C11.2117 15.7767 11.6217 15.68 12.1284 15.68C12.8017 15.68 13.3184 15.8367 13.6784 16.15C14.0384 16.4633 14.2184 16.9133 14.2184 17.5V20.11H14.7684V21H14.1584ZM11.9584 20.29C12.2984 20.29 12.5784 20.2167 12.7984 20.07C13.0184 19.9167 13.1284 19.7133 13.1284 19.46V18.71H12.2084C11.455 18.71 11.0784 18.9433 11.0784 19.41V19.59C11.0784 19.8233 11.155 20 11.3084 20.12C11.4684 20.2333 11.685 20.29 11.9584 20.29ZM15.8366 21V15.8H16.9266V16.66H16.9766C17.09 16.38 17.26 16.1467 17.4866 15.96C17.72 15.7733 18.0366 15.68 18.4366 15.68C18.97 15.68 19.3833 15.8567 19.6766 16.21C19.9766 16.5567 20.1266 17.0533 20.1266 17.7V21H19.0366V17.84C19.0366 17.0267 18.71 16.62 18.0566 16.62C17.9166 16.62 17.7766 16.64 17.6366 16.68C17.5033 16.7133 17.3833 16.7667 17.2766 16.84C17.17 16.9133 17.0833 17.0067 17.0166 17.12C16.9566 17.2333 16.9266 17.3667 16.9266 17.52V21H15.8366ZM23.2874 21.12C22.7941 21.12 22.3808 21.0333 22.0474 20.86C21.7141 20.6867 21.4241 20.4467 21.1774 20.14L21.8774 19.5C22.0708 19.7333 22.2841 19.9167 22.5174 20.05C22.7574 20.1767 23.0341 20.24 23.3474 20.24C23.6674 20.24 23.9041 20.18 24.0574 20.06C24.2174 19.9333 24.2974 19.76 24.2974 19.54C24.2974 19.3733 24.2408 19.2333 24.1274 19.12C24.0208 19 23.8308 18.9233 23.5574 18.89L23.0774 18.83C22.5441 18.7633 22.1241 18.61 21.8174 18.37C21.5174 18.1233 21.3674 17.76 21.3674 17.28C21.3674 17.0267 21.4141 16.8033 21.5074 16.61C21.6008 16.41 21.7308 16.2433 21.8974 16.11C22.0708 15.97 22.2741 15.8633 22.5074 15.79C22.7474 15.7167 23.0108 15.68 23.2974 15.68C23.7641 15.68 24.1441 15.7533 24.4374 15.9C24.7374 16.0467 25.0041 16.25 25.2374 16.51L24.5674 17.15C24.4341 16.99 24.2574 16.8533 24.0374 16.74C23.8241 16.62 23.5774 16.56 23.2974 16.56C22.9974 16.56 22.7741 16.62 22.6274 16.74C22.4874 16.86 22.4174 17.0167 22.4174 17.21C22.4174 17.41 22.4808 17.56 22.6074 17.66C22.7341 17.76 22.9374 17.8333 23.2174 17.88L23.6974 17.94C24.2708 18.0267 24.6874 18.1967 24.9474 18.45C25.2141 18.6967 25.3474 19.03 25.3474 19.45C25.3474 19.7033 25.2974 19.9333 25.1974 20.14C25.1041 20.34 24.9674 20.5133 24.7874 20.66C24.6074 20.8067 24.3908 20.92 24.1374 21C23.8841 21.08 23.6008 21.12 23.2874 21.12ZM26.8098 16.69H26.0198V15.8H26.8098V14.94C26.8098 14.52 26.9198 14.1933 27.1398 13.96C27.3598 13.72 27.6898 13.6 28.1298 13.6H28.9898V14.49H27.8998V15.8H28.9898V16.69H27.8998V21H26.8098V16.69ZM31.9391 21.12C31.5658 21.12 31.2325 21.0567 30.9391 20.93C30.6458 20.8033 30.3958 20.6233 30.1891 20.39C29.9825 20.15 29.8225 19.8633 29.7091 19.53C29.6025 19.19 29.5491 18.8133 29.5491 18.4C29.5491 17.9867 29.6025 17.6133 29.7091 17.28C29.8225 16.94 29.9825 16.6533 30.1891 16.42C30.3958 16.18 30.6458 15.9967 30.9391 15.87C31.2325 15.7433 31.5658 15.68 31.9391 15.68C32.3191 15.68 32.6525 15.7467 32.9391 15.88C33.2325 16.0133 33.4758 16.2 33.6691 16.44C33.8625 16.6733 34.0058 16.9467 34.0991 17.26C34.1991 17.5733 34.2491 17.91 34.2491 18.27V18.68H30.6791V18.85C30.6791 19.25 30.7958 19.58 31.0291 19.84C31.2691 20.0933 31.6091 20.22 32.0491 20.22C32.3691 20.22 32.6391 20.15 32.8591 20.01C33.0791 19.87 33.2658 19.68 33.4191 19.44L34.0591 20.07C33.8658 20.39 33.5858 20.6467 33.2191 20.84C32.8525 21.0267 32.4258 21.12 31.9391 21.12ZM31.9391 16.53C31.7525 16.53 31.5791 16.5633 31.4191 16.63C31.2658 16.6967 31.1325 16.79 31.0191 16.91C30.9125 17.03 30.8291 17.1733 30.7691 17.34C30.7091 17.5067 30.6791 17.69 30.6791 17.89V17.96H33.0991V17.86C33.0991 17.46 32.9958 17.14 32.7891 16.9C32.5825 16.6533 32.2991 16.53 31.9391 16.53ZM35.4558 21V15.8H36.5458V16.8H36.5958C36.6691 16.5333 36.8224 16.3 37.0558 16.1C37.2891 15.9 37.6124 15.8 38.0258 15.8H38.3158V16.85H37.8858C37.4524 16.85 37.1191 16.92 36.8858 17.06C36.6591 17.2 36.5458 17.4067 36.5458 17.68V21H35.4558Z" fill="black"/>
</svg>
