<svg xmlns="http://www.w3.org/2000/svg" width="32" height="32" fill="none">
  <g fill="#000" clip-path="url(#a)">
    <path d="M5 26V15.828l-3.586 3.586L0 18l6-6 6 6-1.414 1.414L7 15.828V26h12v2H7a2.002 2.002 0 0 1-2-2ZM31 18h-3v-2h-2v2h-1a2 2 0 0 0-2 2v2a2 2 0 0 0 2 2h4v2h-6v2h3v2h2v-2h1a2 2 0 0 0 2-2v-2a2 2 0 0 0-2-2h-4v-2h6v-2ZM28 12V6a2.002 2.002 0 0 0-2-2H12v2h14v6M7 6H2v2h5V6ZM10 2H2v2h8V2Z"/>
  </g>
  <defs>
    <clipPath id="a">
      <path fill="#fff" d="M0 0h32v32H0z"/>
    </clipPath>
  </defs>
</svg>
