<svg xmlns="http://www.w3.org/2000/svg" width="32" height="32" fill="none">
  <g fill="#000" clip-path="url(#a)">
    <path d="M21 12v-2h-4V7h-2v3h-2a2.002 2.002 0 0 0-2 2v3a2.002 2.002 0 0 0 2 2h6v3h-8v2h4v3h2v-3h2a2.002 2.002 0 0 0 2-2v-3a2.002 2.002 0 0 0-2-2h-6v-3h8Z"/>
    <path d="M16 4A12 12 0 1 1 4 16 12.035 12.035 0 0 1 16 4Zm0-2a14 14 0 1 0 14 14A14.041 14.041 0 0 0 16 2Z"/>
    <path d="m21.134 5.108 1.732 1-12 20.785-1.732-1z"/>
  </g>
  <defs>
    <clipPath id="a">
      <path fill="#fff" d="M0 0h32v32H0z"/>
    </clipPath>
  </defs>
</svg>
