<svg xmlns="http://www.w3.org/2000/svg" width="32" height="32" fill="none">
  <g fill="#000" clip-path="url(#a)">
    <path d="M27 29H13c-1.1 0-2-.9-2-2v-4h2v4h14V13h-4v-2h4c1.1 0 2 .9 2 2v14c0 1.1-.9 2-2 2Z"/>
    <path d="M19 21h-6c-1.1 0-2-.9-2-2v-6c0-1.1.9-2 2-2h6c1.1 0 2 .9 2 2v6c0 1.1-.9 2-2 2Zm-6-8v6h6v-6h-6Z"/>
    <path d="M5 3h14c1.1 0 2 .9 2 2v4h-2V5H5v14h4v2H5c-1.1 0-2-.9-2-2V5c0-1.1.9-2 2-2Z"/>
  </g>
  <defs>
    <clipPath id="a">
      <path fill="#fff" d="M0 0h32v32H0z"/>
    </clipPath>
  </defs>
</svg>
