<svg width="32" height="32" viewBox="0 0 32 32" fill="none" xmlns="http://www.w3.org/2000/svg">
<g clip-path="url(#clip0_68016_33820)">
<mask id="mask0_68016_33820" style="mask-type:luminance" maskUnits="userSpaceOnUse" x="0" y="0" width="32" height="32">
<path d="M32 0H0V32H32V0Z" fill="white"/>
</mask>
<g mask="url(#mask0_68016_33820)">
<path d="M12 21V19H17.9C18.51 19 19 18.44 19 17.75C19 17.06 18.5 16.5 17.9 16.5H14.11C12.4 16.5 11.01 15.04 11.01 13.25C11.01 11.46 12.4 10 14.11 10H20.01V12H14.11C13.5 12 13.01 12.56 13.01 13.25C13.01 13.94 13.51 14.5 14.11 14.5H17.9C19.61 14.5 21 15.96 21 17.75C21 19.54 19.61 21 17.9 21H12Z" fill="#1C1E1F"/>
<path d="M17 9H15V11H17V9Z" fill="#1C1E1F"/>
<path d="M17 20.0601H15V22.0001H17V20.0601Z" fill="#1C1E1F"/>
<path d="M16 3.98999L26 5.98999V16.2C26 20.42 23.79 24.32 20.17 26.49L16 28.99L11.83 26.49C8.22 24.32 6 20.42 6 16.2V5.98999L16 3.98999ZM16 1.98999C15.87 1.98999 15.74 1.99999 15.61 2.02999L5.61 4.02999C4.68 4.21999 4 5.03999 4 5.98999V16.2C4 21.09 6.6 25.69 10.8 28.2L14.97 30.7C15.29 30.89 15.64 30.99 16 30.99C16.36 30.99 16.71 30.9 17.03 30.7L21.2 28.2C25.39 25.68 28 21.08 28 16.2V5.98999C28 5.03999 27.33 4.21999 26.39 4.02999L16.39 2.02999C16.26 1.99999 16.13 1.98999 16 1.98999Z" fill="#1C1E1F"/>
</g>
</g>
<defs>
<clipPath id="clip0_68016_33820">
<rect width="32" height="32" fill="white"/>
</clipPath>
</defs>
</svg>
