<?xml version="1.0" standalone="no"?><!DOCTYPE svg PUBLIC "-//W3C//DTD SVG 1.1//EN" "http://www.w3.org/Graphics/SVG/1.1/DTD/svg11.dtd"><svg width="200px" height="200.00px" viewBox="0 0 1024 1024" version="1.1" xmlns="http://www.w3.org/2000/svg"><path fill="#a3a8b7" d="M358.4 512c0-7.3728 0.6144-14.592 1.6384-21.6576l173.6704 173.6192A153.8048 153.8048 0 0 1 358.4 512z m244.6336 221.2864l47.3088 47.3088c-44.544 17.9712-90.9312 28.3648-138.3424 28.3648-159.8976 0-311.6544-105.6256-406.016-282.5216a30.72 30.72 0 0 1 0-28.8768 615.7824 615.7824 0 0 1 111.2064-150.016l43.008 43.008A551.6288 551.6288 0 0 0 168.2432 512c84.6336 149.9136 209.2544 235.52 343.808 235.52 31.0784 0 61.44-5.2224 91.0336-14.2336zM222.208 265.6256a30.72 30.72 0 0 1 43.5712-43.264l49.2544 49.2544C376.7296 235.52 443.4432 215.04 512 215.04c159.8976 0 311.6032 105.6256 405.9648 282.5216a30.72 30.72 0 0 1 0 28.8768c-42.24 79.2576-96.4608 143.2064-157.3376 190.7712l41.0112 41.0112a30.6688 30.6688 0 1 1-43.4688 43.3664L222.208 265.6256zM512 276.48c-53.1456 0-104.6528 13.824-152.832 39.2704L427.4176 384A152.6784 152.6784 0 0 1 512 358.4c84.6848 0 153.6 68.9152 153.6 153.6 0 31.2832-9.472 60.3136-25.6 84.5824l77.6192 77.6192c52.3776-39.6288 99.584-93.7984 138.1888-162.2016C771.1744 362.0864 646.5536 276.48 512 276.48z m-39.4752 152.6272l122.368 122.368c5.7856-11.9808 9.2672-25.2928 9.2672-39.424 0-50.8928-41.3184-92.16-92.16-92.16-14.1824 0-27.4944 3.4304-39.4752 9.216z" /></svg>
