<svg width="32" height="32" viewBox="0 0 32 32" fill="none" xmlns="http://www.w3.org/2000/svg">
<g clip-path="url(#clip0_68016_33823)">
<mask id="mask0_68016_33823" style="mask-type:luminance" maskUnits="userSpaceOnUse" x="0" y="0" width="32" height="32">
<path d="M32 0H0V32H32V0Z" fill="white"/>
</mask>
<g mask="url(#mask0_68016_33823)">
<path d="M5 26C6.65685 26 8 24.6569 8 23C8 21.3431 6.65685 20 5 20C3.34315 20 2 21.3431 2 23C2 24.6569 3.34315 26 5 26Z" fill="#1F2020"/>
<path d="M27 26C28.6569 26 30 24.6569 30 23C30 21.3431 28.6569 20 27 20C25.3431 20 24 21.3431 24 23C24 24.6569 25.3431 26 27 26Z" fill="#1F2020"/>
<path d="M16 7C17.6569 7 19 5.65685 19 4C19 2.34315 17.6569 1 16 1C14.3431 1 13 2.34315 13 4C13 5.65685 14.3431 7 16 7Z" fill="#1F2020"/>
<path d="M25.96 18.11C26.3 18.04 26.64 18 27 18C27.33 18 27.65 18.04 27.96 18.1V10.74C27.96 10.03 27.57 9.36995 26.95 9.00995L20.76 5.44995C20.56 6.10995 20.24 6.69995 19.81 7.20995L25.95 10.75V18.12L25.96 18.11Z" fill="#1F2020"/>
<path d="M5 17.9999C5.36 17.9999 5.71 18.0399 6.04 18.1099V10.7599L12.18 7.19994C11.75 6.68994 11.43 6.09994 11.23 5.43994L5.03 9.02994C4.41 9.38994 4.03 10.0499 4.03 10.7599V18.0899C4.35 18.0299 4.67 17.9899 5 17.9899V17.9999Z" fill="#1F2020"/>
<path d="M22.22 24.3999L16.01 27.9999L9.76999 24.4099C9.57999 25.0699 9.25999 25.6599 8.82999 26.1799L15.01 29.7399C15.32 29.9199 15.66 30.0099 16.01 30.0099C16.36 30.0099 16.7 29.9199 17.01 29.7399L23.16 26.1799C22.73 25.6699 22.41 25.0699 22.22 24.4099V24.3999Z" fill="#1F2020"/>
</g>
</g>
<defs>
<clipPath id="clip0_68016_33823">
<rect width="32" height="32" fill="white"/>
</clipPath>
</defs>
</svg>
