<svg width="16" height="16" viewBox="0 0 16 16" fill="none" xmlns="http://www.w3.org/2000/svg">
<path fill-rule="evenodd" clip-rule="evenodd" d="M8.17068 4.39428L7.94467 4.85222C7.65762 5.43384 7.10276 5.83697 6.46091 5.93024L5.95553 6.00368L6.32122 6.36014C6.78568 6.81287 6.99761 7.46515 6.88797 8.10441L6.80164 8.60774L7.25366 8.3701C7.82776 8.06828 8.51361 8.06828 9.0877 8.3701L9.53972 8.60774L9.45339 8.10441C9.34375 7.46515 9.55569 6.81287 10.0201 6.36014L10.3858 6.00368L9.88046 5.93024C9.2386 5.83697 8.68374 5.43384 8.39669 4.85222L8.17068 4.39428ZM8.90699 3.28876C8.6058 2.67848 7.73556 2.67849 7.43437 3.28876L6.91384 4.34348C6.79424 4.58582 6.56304 4.75379 6.2956 4.79265L5.13166 4.96178C4.45818 5.05965 4.18926 5.88729 4.67659 6.36232L5.51883 7.18331C5.71236 7.37194 5.80066 7.64373 5.75498 7.91009L5.55615 9.06933C5.44111 9.74009 6.14515 10.2516 6.74752 9.93491L7.78859 9.38759C8.0278 9.26183 8.31357 9.26183 8.55277 9.38759L9.59384 9.93491C10.1962 10.2516 10.9003 9.74009 10.7852 9.06933L10.5864 7.91009C10.5407 7.64373 10.629 7.37194 10.8225 7.18331L11.6648 6.36232C12.1521 5.88729 11.8832 5.05965 11.2097 4.96178L10.0458 4.79265C9.77832 4.75379 9.54713 4.58582 9.42752 4.34348L8.90699 3.28876Z" fill="#91A5B1"/>
<path fill-rule="evenodd" clip-rule="evenodd" d="M13.0681 6.52293C13.0681 9.25546 10.853 11.4706 8.12043 11.4706C5.3879 11.4706 3.17274 9.25546 3.17274 6.52293C3.17274 3.79039 5.3879 1.57523 8.12043 1.57523C10.853 1.57523 13.0681 3.79039 13.0681 6.52293ZM8.98189 12.3683C8.70068 12.4093 8.41304 12.4306 8.12043 12.4306C7.75368 12.4306 7.39474 12.3972 7.04648 12.3332L4.2608 15.7532C3.92275 16.1682 3.27352 16.0382 3.11105 15.5229L2.63783 14.0221C2.55873 13.7712 2.34769 13.5888 2.09413 13.5521L0.577202 13.3327C0.056405 13.2573 -0.180645 12.6212 0.157402 12.2062L2.76044 9.0105C2.40896 8.25445 2.21274 7.4116 2.21274 6.52293C2.21274 3.2602 4.85771 0.615234 8.12043 0.615234C11.3832 0.615234 14.0281 3.2602 14.0281 6.52293C14.0281 7.48489 13.7982 8.39316 13.3903 9.19577L15.8424 12.2062C16.1805 12.6212 15.9434 13.2573 15.4226 13.3327L13.9057 13.5521C13.6522 13.5888 13.4411 13.7712 13.362 14.0221L12.8888 15.5229C12.7263 16.0382 12.0771 16.1682 11.7391 15.7532L8.98189 12.3683ZM10.0061 12.1233L12.1465 14.7511L12.4705 13.7238C12.6603 13.1217 13.1668 12.6839 13.7753 12.5958L14.8137 12.4456L12.8612 10.0485C12.1501 11.0032 11.1574 11.7358 10.0061 12.1233ZM3.26656 9.89146L1.18611 12.4456L2.22451 12.5958C2.83304 12.6839 3.33955 13.1217 3.52938 13.7238L3.85332 14.7511L6.04791 12.0569C4.91465 11.6322 3.94659 10.8695 3.26656 9.89146Z" fill="#3E4648"/>
</svg>
