<?xml version="1.0" standalone="no"?><!DOCTYPE svg PUBLIC "-//W3C//DTD SVG 1.1//EN" "http://www.w3.org/Graphics/SVG/1.1/DTD/svg11.dtd"><svg width="200px" height="200.00px" viewBox="0 0 1024 1024" version="1.1" xmlns="http://www.w3.org/2000/svg"><path fill="#a3a8b7" d="M512 808.96c-159.8976 0-311.6544-105.6256-406.016-282.5216a30.72 30.72 0 0 1 0-28.8768C200.3968 320.6656 352.1536 215.04 512 215.04c159.8976 0 311.6544 105.6256 406.016 282.5216a30.72 30.72 0 0 1 0 28.8768C823.6544 703.3344 671.8976 808.96 512 808.96zM168.192 512c84.6336 149.9136 209.2544 235.5712 343.808 235.5712s259.1744-85.6576 343.8592-235.5712C771.1744 362.0864 646.5536 276.48 512 276.48S252.8256 362.0864 168.192 512zM512 670.72A158.9248 158.9248 0 0 1 353.28 512c0-87.552 71.2192-158.72 158.72-158.72 87.552 0 158.72 71.168 158.72 158.72 0 87.552-71.168 158.72-158.72 158.72z m0-256c-53.6576 0-97.28 43.6224-97.28 97.28s43.6224 97.28 97.28 97.28 97.28-43.6224 97.28-97.28-43.6224-97.28-97.28-97.28z" /></svg>
