<svg width="14" height="17" viewBox="0 0 14 17" fill="none" xmlns="http://www.w3.org/2000/svg">
<path d="M4.57797 16.5051C4.05399 16.4766 3.56092 16.2481 3.20047 15.8667C2.7693 15.4519 2.38454 14.9914 2.05297 14.4934C1.53505 13.7517 1.12564 12.9399 0.837139 12.0826C0.510358 11.1602 0.338316 10.1902 0.327972 9.21173C0.302861 8.25161 0.540897 7.30292 1.01631 6.46839C1.36428 5.86681 1.86063 5.36444 2.45797 5.00923C3.04871 4.65553 3.72282 4.46515 4.41131 4.45756C4.93032 4.48827 5.44035 4.6069 5.91964 4.80839C6.30177 4.97653 6.70397 5.09472 7.11631 5.16006C7.57132 5.06474 8.01593 4.92518 8.4438 4.74339C8.95019 4.54566 9.48635 4.43493 10.0296 4.41589C10.1021 4.41589 10.1738 4.41589 10.243 4.42423C11.4343 4.45877 12.5422 5.04355 13.243 6.00756C12.1288 6.60326 11.4446 7.77529 11.4738 9.03839C11.4628 9.99638 11.8622 10.9133 12.5713 11.5576C12.8904 11.8616 13.262 12.1052 13.668 12.2767C13.5846 12.5267 13.4888 12.7684 13.3871 13.0117C13.156 13.5495 12.871 14.0624 12.5363 14.5426C12.2204 15.0235 11.8526 15.4684 11.4396 15.8692C11.0627 16.2433 10.5602 16.464 10.0296 16.4884C9.57994 16.4684 9.13817 16.363 8.72797 16.1776C8.28565 15.9849 7.81029 15.8793 7.32797 15.8667C6.83205 15.8765 6.34261 15.9814 5.88631 16.1759C5.49218 16.3537 5.0711 16.4644 4.64047 16.5034L4.57797 16.5051ZM7.20297 4.41589C7.14047 4.41589 7.07797 4.41589 7.01547 4.40839C7.00232 4.3092 6.99536 4.20928 6.99464 4.10923C7.0219 3.27684 7.3472 2.48192 7.9113 1.86923C8.22659 1.51721 8.60872 1.23139 9.03547 1.02839C9.43369 0.823395 9.8689 0.700142 10.3155 0.665894C10.328 0.77506 10.328 0.881727 10.328 0.983394C10.3162 1.80268 10.0083 2.59004 9.46131 3.20006C8.92509 3.91904 8.09839 4.36412 7.20297 4.41589Z" fill="white"/>
</svg>
