<svg width="60" height="60" viewBox="0 0 60 60" fill="none" xmlns="http://www.w3.org/2000/svg">
<mask id="mask0_3035_13889" style="mask-type:alpha" maskUnits="userSpaceOnUse" x="0" y="0" width="60" height="60">
<rect width="60" height="60" fill="#D9D9D9"/>
</mask>
<g mask="url(#mask0_3035_13889)">
<path d="M24.9992 6.20007C17.3777 6.20007 11.1992 12.3785 11.1992 20.0001V23.0001H9.5C8.94772 23.0001 8.5 23.4478 8.5 24.0001V31.0001C8.5 31.5524 8.94772 32.0001 9.5 32.0001H13.5L13.5101 32.0001H13.7992C14.3515 32.0001 14.7992 31.5524 14.7992 31.0001V20.0001C14.7992 14.3668 19.3659 9.80007 24.9992 9.80007H35.9992C41.6325 9.80007 46.1992 14.3668 46.1992 20.0001V40.0001C46.1992 45.6334 41.6325 50.2001 35.9992 50.2001H35.256C34.9798 50.2001 34.756 50.4239 34.756 50.7001V53.3001C34.756 53.5762 34.9798 53.8001 35.256 53.8001H35.9992C43.6208 53.8001 49.7992 47.6216 49.7992 40.0001V32.0001H51.5C52.0523 32.0001 52.5 31.5524 52.5 31.0001V24.0001C52.5 23.4478 52.0523 23.0001 51.5 23.0001H49.7992V20.0001C49.7992 12.3785 43.6207 6.20007 35.9992 6.20007H24.9992Z" fill="#141F21"/>
<path d="M25.8254 34.9993C25.7964 34.7247 25.5754 34.5001 25.2992 34.5001H22.6992C22.4231 34.5001 22.1977 34.7245 22.214 35.0002C22.4726 39.3513 26.0832 42.8001 30.4992 42.8001C34.9153 42.8001 38.5258 39.3513 38.7844 35.0002C38.8008 34.7245 38.5754 34.5001 38.2992 34.5001H35.6992C35.4231 34.5001 35.202 34.7247 35.173 34.9993C34.9237 37.3604 32.9263 39.2001 30.4992 39.2001C28.0721 39.2001 26.0747 37.3604 25.8254 34.9993Z" fill="#141F21"/>
</g>
</svg>
