<svg width="60" height="60" viewBox="0 0 60 60" fill="none" xmlns="http://www.w3.org/2000/svg">
<mask id="mask0_3035_13898" style="mask-type:alpha" maskUnits="userSpaceOnUse" x="0" y="0" width="60" height="60">
<rect width="60" height="60" fill="#D9D9D9"/>
</mask>
<g mask="url(#mask0_3035_13898)">
<path d="M14 32.2899C16.8915 33.1504 19 35.829 19 39C19 42.171 16.8915 44.8496 14 45.7101V53.5C14 53.7761 13.7761 54 13.5 54H10.5C10.2239 54 10 53.7761 10 53.5V45.7101C7.10851 44.8496 5 42.171 5 39C5 35.829 7.10851 33.1504 10 32.2899V6.5C10 6.22386 10.2239 6 10.5 6H13.5C13.7761 6 14 6.22386 14 6.5V32.2899ZM15.4 39C15.4 37.1222 13.8778 35.6 12 35.6C10.1222 35.6 8.6 37.1222 8.6 39C8.6 40.8778 10.1222 42.4 12 42.4C13.8778 42.4 15.4 40.8778 15.4 39Z" fill="#141F21"/>
<path d="M32 16.2899C34.8915 17.1504 37 19.829 37 23C37 26.171 34.8915 28.8496 32 29.7101V53.5C32 53.7761 31.7761 54 31.5 54H28.5C28.2239 54 28 53.7761 28 53.5V29.7101C25.1085 28.8496 23 26.171 23 23C23 19.829 25.1085 17.1504 28 16.2899V6.5C28 6.22386 28.2239 6 28.5 6H31.5C31.7761 6 32 6.22386 32 6.5V16.2899ZM33.4 23C33.4 21.1222 31.8778 19.6 30 19.6C28.1222 19.6 26.6 21.1222 26.6 23C26.6 24.8778 28.1222 26.4 30 26.4C31.8778 26.4 33.4 24.8778 33.4 23Z" fill="#141F21"/>
<path d="M55 39C55 35.829 52.8915 33.1504 50 32.2899V6.5C50 6.22386 49.7761 6 49.5 6H46.5C46.2239 6 46 6.22386 46 6.5V32.2899C43.1085 33.1504 41 35.829 41 39C41 42.171 43.1085 44.8496 46 45.7101V53.5C46 53.7761 46.2239 54 46.5 54H49.5C49.7761 54 50 53.7761 50 53.5V45.7101C52.8915 44.8496 55 42.171 55 39ZM48 35.6C49.8778 35.6 51.4 37.1222 51.4 39C51.4 40.8778 49.8778 42.4 48 42.4C46.1222 42.4 44.6 40.8778 44.6 39C44.6 37.1222 46.1222 35.6 48 35.6Z" fill="#141F21"/>
</g>
</svg>
