<svg width="60" height="60" viewBox="0 0 60 60" fill="none" xmlns="http://www.w3.org/2000/svg">
<mask id="mask0_602_5308" style="mask-type:alpha" maskUnits="userSpaceOnUse" x="0" y="0" width="60" height="60">
<rect width="60" height="60" fill="#D9D9D9"/>
</mask>
<g mask="url(#mask0_602_5308)">
<path d="M30.3536 3.70211L41.1036 14.4521C41.1973 14.5459 41.25 14.6731 41.25 14.8057V23.5987L52.7286 35.0772C52.8223 35.171 52.875 35.2982 52.875 35.4308V43.3753C52.875 43.6515 52.6511 43.8753 52.375 43.8753H41.25V48.2502C41.25 48.5264 41.0261 48.7502 40.75 48.7502H38C37.7239 48.7502 37.5 48.5264 37.5 48.2502V16.359C37.5 16.2264 37.4473 16.0992 37.3536 16.0054L30.3536 9.00541C30.1583 8.81015 29.8417 8.81015 29.6464 9.00541L22.6464 16.0054C22.5527 16.0992 22.5 16.2264 22.5 16.359V48.2502C22.5 48.5264 22.2761 48.7502 22 48.7502H19.25C18.9739 48.7502 18.75 48.5264 18.75 48.2502V43.8753H7.625C7.34886 43.8753 7.125 43.6515 7.125 43.3753V35.4308C7.125 35.2982 7.17768 35.171 7.27145 35.0772L18.75 23.5987V14.8057C18.75 14.6731 18.8027 14.5459 18.8964 14.4521L29.6464 3.70211C29.8417 3.50685 30.1583 3.50685 30.3536 3.70211ZM41.25 28.902V40.1253H49.125V36.777L41.25 28.902ZM10.875 36.777V40.1253H18.75V28.902L10.875 36.777Z" fill="#141F21"/>
<path d="M28.625 25.8754C28.3489 25.8754 28.125 26.0993 28.125 26.3754V53.8754C28.125 54.1516 28.3489 54.3754 28.625 54.3754H31.375C31.6511 54.3754 31.875 54.1516 31.875 53.8754V26.3754C31.875 26.0993 31.6511 25.8754 31.375 25.8754H28.625Z" fill="#141F21"/>
</g>
</svg>
