<svg width="60" height="60" viewBox="0 0 60 60" fill="none" xmlns="http://www.w3.org/2000/svg">
<mask id="mask0_3002_12428" style="mask-type:alpha" maskUnits="userSpaceOnUse" x="0" y="0" width="60" height="60">
<rect width="60" height="60" fill="#D9D9D9"/>
</mask>
<g mask="url(#mask0_3002_12428)">
<path d="M47.7 10.3C47.9761 10.3 48.2 10.5238 48.2 10.8V49.5C48.2 49.7761 48.4239 50 48.7 50H51.3C51.5761 50 51.8 49.7761 51.8 49.5V8.99995C51.8 7.7297 50.7703 6.69995 49.5 6.69995H16C15.7239 6.69995 15.5 6.92381 15.5 7.19995V9.79995C15.5 10.0761 15.7239 10.3 16 10.3H47.7Z" fill="#141F21"/>
<path d="M16 23C16 22.7239 16.2239 22.5 16.5 22.5H36.5C36.7761 22.5 37 22.7239 37 23V25.75C37 26.0261 36.7761 26.25 36.5 26.25H16.5C16.2239 26.25 16 26.0261 16 25.75V23Z" fill="#141F21"/>
<path d="M27.5 33C27.2239 33 27 33.2239 27 33.5V36.25C27 36.5261 27.2239 36.75 27.5 36.75H36.5C36.7761 36.75 37 36.5261 37 36.25V33.5C37 33.2239 36.7761 33 36.5 33H27.5Z" fill="#141F21"/>
<path d="M15.7145 35.5278C15.7316 35.4299 15.778 35.3362 15.8536 35.2605L21.5104 29.6035C21.7057 29.4084 22.0223 29.4084 22.2175 29.6035L24.162 31.5481C24.3573 31.7434 24.3573 32.0601 24.162 32.2554L20.8038 35.6135L24.1627 38.9727C24.2753 39.085 24.3229 39.2378 24.3058 39.3843C24.3028 39.4099 24.2978 39.4353 24.2908 39.4604C24.2822 39.4915 24.2706 39.5217 24.2559 39.551C24.2326 39.5974 24.2015 39.6409 24.1628 39.6797L22.2182 41.6243C22.0229 41.8196 21.7064 41.8196 21.5111 41.6243L17.8165 37.9297L17.7981 37.9121L15.8536 35.9675C15.7339 35.8479 15.6876 35.6826 15.7145 35.5278Z" fill="#141F21"/>
<path d="M44.25 13.5C44.6642 13.5 45 13.8357 45 14.25V55.248C45 55.7488 44.519 56.1089 44.0387 55.9678L26.0583 50.6885C25.9175 50.647 25.7676 50.6479 25.6272 50.6909L8.46991 55.9526C7.98773 56.1003 7.5 55.7397 7.5 55.2356V14.25C7.5 13.8357 7.83582 13.5 8.25 13.5H44.25ZM11.25 17.25V51.1777L24.5277 47.1057C25.37 46.8474 26.2695 46.842 27.1149 47.0903L41.25 51.2407V17.25H11.25Z" fill="#141F21"/>
</g>
</svg>
