<svg width="15" height="16" viewBox="0 0 15 16" fill="none" xmlns="http://www.w3.org/2000/svg">
<path d="M1.50124 15.5001C1.35909 15.5023 1.21778 15.478 1.08457 15.4284L7.79624 8.71422L10.0179 10.9384L2.3054 15.2717C2.0611 15.4149 1.78434 15.4935 1.50124 15.5001ZM0.531235 14.9459C0.394801 14.6988 0.326901 14.4197 0.334569 14.1376V1.88339C0.333442 1.69737 0.361563 1.51233 0.417902 1.33505L7.27873 8.19755L0.528735 14.9476L0.531235 14.9459ZM10.6804 10.5642L8.3129 8.19839L10.9237 5.58839L13.2429 6.89089C13.6881 7.09012 13.986 7.51992 14.0162 8.00672C13.9861 8.49401 13.6878 8.92425 13.2421 9.12339L10.6804 10.5642ZM7.79624 7.67839L0.846235 0.729219C1.03706 0.588116 1.26808 0.511888 1.5054 0.511719C1.78569 0.521671 2.05913 0.600983 2.30124 0.742552L10.2604 5.21589L7.79707 7.67839H7.79624Z" fill="white"/>
</svg>
