<svg width="16" height="16" viewBox="0 0 16 16" fill="none" xmlns="http://www.w3.org/2000/svg">
<path d="M2.94884 3.37132H4.59832V5.02081H2.94884V3.37132Z" fill="white"/>
<path d="M0.474609 7.49503V0.897095H7.07255V7.49503H0.474609ZM2.12409 2.54658V5.84555H5.42306V2.54658H2.12409Z" fill="white"/>
<path d="M8.72203 9.14452H11.1963V10.794H8.72203V9.14452Z" fill="white"/>
<path d="M11.1963 10.794H12.8457V9.14452H15.32V11.6187H12.8457V12.4435H13.6705V13.2682H15.32V15.7425H13.6705V14.093H12.021V15.7425H8.72203V12.4435H10.3715V14.093H11.1963V10.794Z" fill="white"/>
<path d="M12.8457 3.37132H11.1963V5.02081H12.8457V3.37132Z" fill="white"/>
<path d="M8.72203 0.897095V7.49503H15.32V0.897095H8.72203ZM13.6705 2.54658V5.84555H10.3715V2.54658H13.6705Z" fill="white"/>
<path d="M2.94884 11.6187H4.59832V13.2682H2.94884V11.6187Z" fill="white"/>
<path d="M0.474609 15.7425V9.14452H7.07255V15.7425H0.474609ZM2.12409 10.794V14.093H5.42306V10.794H2.12409Z" fill="white"/>
</svg>
