<svg width="36" height="36" viewBox="0 0 36 36" fill="none" xmlns="http://www.w3.org/2000/svg">
<mask id="mask0_3076_8700" style="mask-type:alpha" maskUnits="userSpaceOnUse" x="0" y="0" width="36" height="36">
<rect width="36" height="36" fill="#D9D9D9"/>
</mask>
<g mask="url(#mask0_3076_8700)">
<path d="M18 26.25C13.4437 26.25 9.75 22.5563 9.75 18C9.75 13.4437 13.4437 9.75 18 9.75C22.5563 9.75 26.25 13.4437 26.25 18C26.25 22.5563 22.5563 26.25 18 26.25ZM18 23.25C20.8995 23.25 23.25 20.8995 23.25 18C23.25 15.1005 20.8995 12.75 18 12.75C15.1005 12.75 12.75 15.1005 12.75 18C12.75 20.8995 15.1005 23.25 18 23.25Z" fill="#141F21"/>
<path d="M27.375 10.5C28.4105 10.5 29.25 9.66053 29.25 8.625C29.25 7.58947 28.4105 6.75 27.375 6.75C26.3395 6.75 25.5 7.58947 25.5 8.625C25.5 9.66053 26.3395 10.5 27.375 10.5Z" fill="#141F21"/>
<path d="M10.5 1.5C5.52944 1.5 1.5 5.52944 1.5 10.5V25.5C1.5 30.4706 5.52944 34.5 10.5 34.5H25.5C30.4706 34.5 34.5 30.4706 34.5 25.5V10.5C34.5 5.52944 30.4706 1.5 25.5 1.5H10.5ZM25.5 4.5C28.8137 4.5 31.5 7.18629 31.5 10.5V25.5C31.5 28.8137 28.8137 31.5 25.5 31.5H10.5C7.18629 31.5 4.5 28.8137 4.5 25.5V10.5C4.5 7.18629 7.18629 4.5 10.5 4.5H25.5Z" fill="#141F21"/>
</g>
</svg>
