<svg width="36" height="36" viewBox="0 0 36 36" fill="none" xmlns="http://www.w3.org/2000/svg">
<mask id="mask0_3076_8682" style="mask-type:alpha" maskUnits="userSpaceOnUse" x="0" y="0" width="36" height="36">
<rect width="36" height="36" fill="#D9D9D9"/>
</mask>
<g mask="url(#mask0_3076_8682)">
<path d="M31.7375 11.4183C31.7375 11.0947 31.7313 10.7747 31.717 10.4569C33.1004 9.42611 34.3007 8.13576 35.25 6.65919C33.9608 7.23928 32.5889 7.61461 31.184 7.7716C32.6462 6.87175 33.7677 5.43261 34.2976 3.70556C32.9284 4.53592 31.4139 5.12955 29.8037 5.43888C28.5134 3.97077 26.6722 3.03568 24.6368 3.00093C20.7276 2.93631 17.5587 6.23978 17.5587 10.3785C17.5587 10.9668 17.6202 11.5373 17.7423 12.0882C11.8557 11.7094 6.6393 8.64523 3.14997 4.02602C2.54112 5.13272 2.19182 6.42612 2.19182 7.81219C2.19182 10.4338 3.44146 12.7638 5.34018 14.1388C4.1778 14.0862 3.08893 13.7342 2.13389 13.157V13.2532C2.13389 16.9173 4.57451 19.9872 7.81293 20.7034C7.21924 20.8723 6.59305 20.9602 5.94903 20.957C5.50156 20.9547 5.05556 20.9059 4.6182 20.8113C5.51806 23.8139 8.13333 26.0076 11.2295 26.0807C8.80632 28.0899 5.7538 29.29 2.43968 29.2817C1.86826 29.2817 1.30359 29.2433 0.75 29.1738C3.88369 31.3234 7.60347 32.5753 11.6022 32.5753C24.6189 32.5784 31.7375 21.2485 31.7375 11.4183Z" fill="#141F21"/>
</g>
</svg>
