<svg width="36" height="36" viewBox="0 0 36 36" fill="none" xmlns="http://www.w3.org/2000/svg">
<mask id="mask0_3076_8688" style="mask-type:alpha" maskUnits="userSpaceOnUse" x="0" y="0" width="36" height="36">
<rect width="36" height="36" fill="#D9D9D9"/>
</mask>
<g mask="url(#mask0_3076_8688)">
</g>
<g clip-path="url(#clip0_3076_8688)">
<path d="M23.3955 25.5688L26.1027 12.8072C26.3419 11.684 25.6973 11.2421 24.9606 11.5179L9.04993 17.65C7.96329 18.0731 7.98214 18.6812 8.86607 18.957L12.9357 20.2275L22.3831 14.2793C22.8251 13.9846 23.2305 14.1508 22.8993 14.4454L15.2575 21.3507L14.9628 25.5499C15.3859 25.5499 15.571 25.3661 15.7914 25.1445L17.7796 23.2293L21.9046 26.2677C22.6601 26.6908 23.194 26.4704 23.3967 25.5676L23.3955 25.5688ZM34.5 18C34.5 27.1151 27.1151 34.5 18 34.5C8.88493 34.5 1.5 27.1151 1.5 18C1.5 8.88493 8.88493 1.5 18 1.5C27.1151 1.5 34.5 8.88493 34.5 18Z" fill="#141F21"/>
</g>
<defs>
<clipPath id="clip0_3076_8688">
<rect width="33" height="33" fill="white" transform="translate(1.5 1.5)"/>
</clipPath>
</defs>
</svg>
